<svg id="visual" viewBox="0 0 900 600" width="900" height="600" xmlns="http://www.w3.org/2000/svg" xmlns:xlink="http://www.w3.org/1999/xlink" version="1.1"><rect x="0" y="0" width="900" height="600" fill="#FFFFFF"></rect><defs><linearGradient id="grad1_0" x1="33.3%" y1="0%" x2="100%" y2="100%"><stop offset="20%" stop-color="#ffffff" stop-opacity="1"></stop><stop offset="80%" stop-color="#ffffff" stop-opacity="1"></stop></linearGradient></defs><defs><linearGradient id="grad2_0" x1="0%" y1="0%" x2="66.7%" y2="100%"><stop offset="20%" stop-color="#ffffff" stop-opacity="1"></stop><stop offset="80%" stop-color="#ffffff" stop-opacity="1"></stop></linearGradient></defs><g transform="translate(900, 0)"><path d="M0 405.6C-33.7 387.5 -67.5 369.4 -93.7 349.7C-119.9 329.9 -138.5 308.6 -175 303.1C-211.5 297.6 -265.8 307.9 -286.8 286.8C-307.9 265.7 -295.6 213.2 -310.9 179.5C-326.2 145.8 -368.9 131.1 -389.3 104.3C-409.6 77.5 -407.6 38.8 -405.6 0L0 0Z" fill="#6600FF"></path></g><g transform="translate(0, 600)"><path d="M0 -405.6C31.1 -384.4 62.1 -363.3 95.2 -355.5C128.4 -347.6 163.5 -353.2 200 -346.4C236.5 -339.6 274.2 -320.5 286.8 -286.8C299.5 -253.1 287 -204.8 299.6 -173C312.3 -141.2 350 -125.7 371.9 -99.6C393.7 -73.6 399.7 -36.8 405.6 0L0 0Z" fill="#6600FF"></path></g></svg>