<svg id="visual" viewBox="0 0 900 600" width="900" height="600" xmlns="http://www.w3.org/2000/svg" xmlns:xlink="http://www.w3.org/1999/xlink" version="1.1"><rect x="0" y="0" width="900" height="600" fill="#FFFFFF"></rect><defs><linearGradient id="grad1_0" x1="33.3%" y1="0%" x2="100%" y2="100%"><stop offset="20%" stop-color="#ffffff" stop-opacity="1"></stop><stop offset="80%" stop-color="#ffffff" stop-opacity="1"></stop></linearGradient></defs><defs><linearGradient id="grad2_0" x1="0%" y1="0%" x2="66.7%" y2="100%"><stop offset="20%" stop-color="#ffffff" stop-opacity="1"></stop><stop offset="80%" stop-color="#ffffff" stop-opacity="1"></stop></linearGradient></defs><g transform="translate(900, 0)"><path d="M0 405.6C-27.1 371.8 -54.2 338 -89.6 334.2C-124.9 330.4 -168.6 356.6 -202.8 351.3C-237 346 -261.6 309.2 -272.9 272.9C-284.2 236.7 -282.2 201 -302.2 174.5C-322.3 148 -364.5 130.8 -385.4 103.3C-406.3 75.7 -406 37.9 -405.6 0L0 0Z" fill="#6600FF"></path></g><g transform="translate(0, 600)"><path d="M0 -405.6C29.1 -374.9 58.3 -344.2 89 -332.3C119.8 -320.3 152.1 -327.1 187.5 -324.8C222.9 -322.4 261.4 -310.9 286.8 -286.8C312.2 -262.7 324.6 -226 332.6 -192C340.5 -158 344 -126.8 355.5 -95.2C366.9 -63.7 386.3 -31.9 405.6 0L0 0Z" fill="#6600FF"></path></g></svg>