<svg id="visual" viewBox="0 0 900 600" width="900" height="600" xmlns="http://www.w3.org/2000/svg" xmlns:xlink="http://www.w3.org/1999/xlink" version="1.1"><rect x="0" y="0" width="900" height="600" fill="#FFFFFF"></rect><defs><linearGradient id="grad1_0" x1="33.3%" y1="0%" x2="100%" y2="100%"><stop offset="20%" stop-color="#ffffff" stop-opacity="1"></stop><stop offset="80%" stop-color="#ffffff" stop-opacity="1"></stop></linearGradient></defs><defs><linearGradient id="grad2_0" x1="0%" y1="0%" x2="66.7%" y2="100%"><stop offset="20%" stop-color="#ffffff" stop-opacity="1"></stop><stop offset="80%" stop-color="#ffffff" stop-opacity="1"></stop></linearGradient></defs><g transform="translate(900, 0)"><path d="M0 405.6C-33.2 393.1 -66.4 380.5 -98.4 367.1C-130.3 353.6 -160.9 339.3 -184.5 319.6C-208.1 299.8 -224.8 274.7 -257.4 257.4C-290 240.1 -338.6 230.6 -351.3 202.8C-364 175 -340.8 129 -343.9 92.1C-346.9 55.3 -376.3 27.6 -405.6 0L0 0Z" fill="#6600FF"></path></g><g transform="translate(0, 600)"><path d="M0 -405.6C32.2 -388.1 64.4 -370.6 95.2 -355.5C126.1 -340.3 155.6 -327.4 178 -308.3C200.4 -289.2 215.8 -263.7 248.2 -248.2C280.6 -232.6 330 -227 351.3 -202.8C372.5 -178.7 365.6 -136 369.9 -99.1C374.3 -62.2 390 -31.1 405.6 0L0 0Z" fill="#6600FF"></path></g></svg>