<svg id="visual" viewBox="0 0 900 600" width="900" height="600" xmlns="http://www.w3.org/2000/svg" xmlns:xlink="http://www.w3.org/1999/xlink" version="1.1"><rect x="0" y="0" width="900" height="600" fill="#FFFFFF"></rect><defs><linearGradient id="grad1_0" x1="33.3%" y1="0%" x2="100%" y2="100%"><stop offset="20%" stop-color="#ffffff" stop-opacity="1"></stop><stop offset="80%" stop-color="#ffffff" stop-opacity="1"></stop></linearGradient></defs><defs><linearGradient id="grad2_0" x1="0%" y1="0%" x2="66.7%" y2="100%"><stop offset="20%" stop-color="#ffffff" stop-opacity="1"></stop><stop offset="80%" stop-color="#ffffff" stop-opacity="1"></stop></linearGradient></defs><g transform="translate(900, 0)"><path d="M0 405.6C-36.2 405.3 -72.4 405 -105 391.8C-137.5 378.6 -166.4 352.4 -187.5 324.8C-208.6 297.1 -221.9 267.9 -246.8 246.8C-271.7 225.6 -308.2 212.5 -325.6 188C-343.1 163.5 -341.4 127.5 -351.6 94.2C-361.8 61 -383.7 30.5 -405.6 0L0 0Z" fill="#6600FF"></path></g><g transform="translate(0, 600)"><path d="M0 -405.6C27.4 -374.1 54.8 -342.5 90.8 -339C126.9 -335.6 171.5 -360.3 202.8 -351.3C234.1 -342.3 252 -299.6 263.8 -263.8C275.5 -227.9 281.2 -199 302.2 -174.5C323.3 -150 359.8 -130.1 379.6 -101.7C399.4 -73.4 402.5 -36.7 405.6 0L0 0Z" fill="#6600FF"></path></g></svg>