<svg id="visual" viewBox="0 0 900 600" width="900" height="600" xmlns="http://www.w3.org/2000/svg" xmlns:xlink="http://www.w3.org/1999/xlink" version="1.1"><rect x="0" y="0" width="900" height="600" fill="#FFFFFF"></rect><defs><linearGradient id="grad1_0" x1="33.3%" y1="0%" x2="100%" y2="100%"><stop offset="20%" stop-color="#ffffff" stop-opacity="1"></stop><stop offset="80%" stop-color="#ffffff" stop-opacity="1"></stop></linearGradient></defs><defs><linearGradient id="grad2_0" x1="0%" y1="0%" x2="66.7%" y2="100%"><stop offset="20%" stop-color="#ffffff" stop-opacity="1"></stop><stop offset="80%" stop-color="#ffffff" stop-opacity="1"></stop></linearGradient></defs><g transform="translate(900, 0)"><path d="M0 405.6C-39.3 409.7 -78.5 413.8 -105 391.8C-131.4 369.8 -145.1 321.7 -175 303.1C-204.9 284.5 -251.2 295.5 -280.7 280.7C-310.2 265.9 -323 225.3 -328.2 189.5C-333.5 153.7 -331.3 122.7 -342.9 91.9C-354.6 61.1 -380.1 30.5 -405.6 0L0 0Z" fill="#6600FF"></path></g><g transform="translate(0, 600)"><path d="M0 -405.6C30.7 -378.9 61.5 -352.1 89.8 -335.2C118.1 -318.3 144.1 -311.2 176.5 -305.7C208.9 -300.2 247.8 -296.3 280 -280C312.2 -263.7 337.6 -235.1 351.3 -202.8C364.9 -170.5 366.7 -134.6 373.8 -100.2C380.9 -65.8 393.3 -32.9 405.6 0L0 0Z" fill="#6600FF"></path></g></svg>